<?xml version="1.0" standalone="no"?>
<!DOCTYPE svg PUBLIC "-//W3C//DTD SVG 20010904//EN"
 "http://www.w3.org/TR/2001/REC-SVG-20010904/DTD/svg10.dtd">
<svg version="1.0" xmlns="http://www.w3.org/2000/svg"
 width="528.000000pt" height="528.000000pt" viewBox="0 0 528.000000 528.000000"
 preserveAspectRatio="xMidYMid meet">
<metadata>
Created by potrace 1.11, written by Peter Selinger 2001-2013
</metadata>
<g transform="translate(0.000000,528.000000) scale(0.100000,-0.100000)"
fill="#000000" stroke="none">
<path d="M162 5273 c-7 -3 -20 -19 -28 -36 -19 -36 -15 -103 17 -255 11 -53
22 -108 24 -122 2 -14 9 -50 15 -80 6 -30 13 -66 16 -80 82 -437 112 -561 170
-698 96 -223 139 -284 424 -597 20 -22 85 -94 144 -160 60 -66 132 -145 159
-175 28 -30 66 -77 84 -105 38 -56 90 -185 99 -242 3 -21 9 -57 14 -81 10 -58
5 -153 -14 -233 -8 -37 -17 -78 -20 -90 -2 -13 -11 -55 -19 -94 -50 -232 -55
-541 -17 -886 22 -193 101 -385 207 -502 80 -90 159 -208 214 -319 66 -138
222 -315 354 -405 150 -102 311 -133 455 -87 35 11 91 17 155 18 105 1 134 -3
200 -27 56 -20 175 -15 255 12 132 44 230 109 349 230 66 69 171 208 171 228
0 5 26 54 58 109 60 103 130 201 190 264 86 90 167 298 186 475 29 270 29 592
1 785 -17 117 -37 216 -62 305 -3 11 -7 70 -9 130 -2 89 2 126 20 195 32 123
91 232 169 312 7 7 78 85 157 173 80 88 149 165 155 171 19 21 169 186 197
217 86 96 218 330 267 475 17 52 51 196 75 322 18 98 60 310 85 440 69 346 66
325 53 368 -26 85 -115 59 -277 -83 -55 -48 -127 -111 -159 -139 -33 -28 -67
-58 -76 -66 -9 -8 -81 -71 -160 -140 -80 -68 -150 -129 -156 -135 -6 -5 -38
-32 -70 -60 -125 -106 -275 -269 -390 -425 -37 -49 -184 -286 -184 -296 0 -2
-26 -47 -58 -101 -32 -54 -90 -152 -129 -218 -39 -66 -95 -145 -125 -176 -94
-98 -220 -171 -340 -198 -53 -12 -689 -12 -753 0 -102 19 -248 102 -335 190
-55 55 -82 98 -271 424 -141 244 -196 329 -281 436 -146 182 -250 288 -443
454 -170 145 -177 151 -240 207 -27 24 -113 98 -190 164 -77 65 -152 130 -168
144 -60 53 -127 79 -165 63z m2453 -4726 c70 -4 198 15 219 32 7 6 31 13 54
17 59 9 55 -7 -18 -92 -56 -63 -125 -169 -175 -268 -25 -49 -48 -65 -72 -50
-16 10 -29 30 -76 119 -38 72 -110 179 -149 222 -69 77 -50 91 67 51 47 -15
112 -29 150 -31z"/>
</g>
</svg>
